<?xml version="1.0" encoding="UTF-8"?>
<svg width="129.55mm" height="129.18mm" version="1.1" viewBox="0 0 129.55 129.18" xmlns="http://www.w3.org/2000/svg" xmlns:cc="http://creativecommons.org/ns#" xmlns:dc="http://purl.org/dc/elements/1.1/" xmlns:rdf="http://www.w3.org/1999/02/22-rdf-syntax-ns#">
 <metadata>
  <rdf:RDF>
   <cc:Work rdf:about="">
    <dc:format>image/svg+xml</dc:format>
    <dc:type rdf:resource="http://purl.org/dc/dcmitype/StillImage"/>
    <dc:title/>
   </cc:Work>
  </rdf:RDF>
 </metadata>
 <g transform="translate(-45.971 -35.572)">
  <path d="m89.202 99.03c-0.0011 0.0044-0.0042 8e-3 -0.0082 0.01003" fill="none" stroke="#000" stroke-width=".26458px"/>
  <g transform="matrix(.26458 0 0 .26458 45.971 35.388)">
   <path d="m460.66 132.91c-58.7-122.1-212.2-166.5-331.8-104.1-9.4 5.2-13.5 16.6-8.3 27 5.2 9.4 16.6 13.5 27 8.3 99.9-52 227.4-14.9 276.7 86.3 65.4 134.3-19 236.7-87.4 274.6-93.1 51.7-211.2 17.4-267.6-70.7l69.3 14.5c10.4 2.1 21.8-4.2 23.9-15.6 2.1-10.4-4.2-21.8-15.6-23.9l-122.8-25c-20.6-2-25 16.6-23.9 22.9l15.6 123.8c1 10.4 9.4 17.7 19.8 17.7 12.8 0 20.8-12.5 19.8-23.9l-6-50.5c57.4 70.8 170.3 131.2 307.4 68.2 58.1-30 191.5-147.7 103.9-329.6z"/>
  </g>
 </g>
</svg>
